<?xml version="1.0" encoding="utf-8"?>
<!-- Generator: Adobe Illustrator 26.0.2, SVG Export Plug-In . SVG Version: 6.00 Build 0)  -->
<svg version="1.1" id="Layer_1" xmlns="http://www.w3.org/2000/svg" xmlns:xlink="http://www.w3.org/1999/xlink" x="0px" y="0px"
	 viewBox="0 0 540 540" style="enable-background:new 0 0 540 540;" xml:space="preserve">
<style type="text/css">
	.st0{fill:#A100FF;}
</style>
<g>
	<polygon class="st0" points="60.3,56.8 137.5,56.8 152.5,41.8 45.2,41.8 45.2,149 60.3,134 60.3,56.8 	"/>
	<polygon class="st0" points="475.1,56.8 475.1,129.4 490.1,144.4 490.1,41.8 387.5,41.8 402.5,56.8 475.1,56.8 	"/>
	<polygon class="st0" points="475.1,471.7 414.1,471.7 399.1,486.7 490.1,486.7 490.1,395.6 475.1,410.6 475.1,471.7 	"/>
	<polygon class="st0" points="60.3,471.7 60.3,406 45.2,390.9 45.2,486.7 141,486.7 125.9,471.7 60.3,471.7 	"/>
	<path class="st0" d="M329.1,0H210.8L0,210.8v118.3L210.8,540h118.3L540,329.2V210.8L329.1,0L329.1,0z M186.2,267.3l81-81l86.5,86.5
		l-81,81L186.2,267.3L186.2,267.3z M175.6,256.7l-44-44L326.1,18.1l199,199V308L324.7,107.6L175.6,256.7L175.6,256.7z M308,15
		L110.4,212.6l151.8,151.8l-46.8,46.8L18.1,213.9L217,15H308L308,15z M215.3,432.4l149-149l44.1,44.1L213.9,521.9L15,323L15,232
		L215.3,432.4L215.3,432.4z M232,525l197.6-197.6L277.8,175.7l46.9-46.9l197.2,197.2L323,525H232L232,525z"/>
</g>
</svg>
